<svg width="1024" height="1024" viewBox="0 0 1024 1024" fill="none" xmlns="http://www.w3.org/2000/svg">
<path d="M0 50C0 22.3858 22.3858 0 50 0H974C1001.61 0 1024 22.3858 1024 50V974C1024 1001.61 1001.61 1024 974 1024H50C22.3858 1024 0 1001.61 0 974V50Z" fill="#191919"/>
<path d="M775.287 396.927L766.89 416.246C765.578 419.391 763.364 422.078 760.527 423.969C757.691 425.859 754.358 426.867 750.949 426.867C747.541 426.867 744.208 425.859 741.371 423.969C738.535 422.078 736.321 419.391 735.009 416.246L726.612 396.927C711.848 362.752 684.81 335.351 650.834 320.131L624.926 308.56C621.783 307.115 619.12 304.798 617.254 301.885C615.387 298.972 614.395 295.585 614.395 292.126C614.395 288.666 615.387 285.28 617.254 282.367C619.12 279.454 621.783 277.137 624.926 275.692L649.4 264.804C684.231 249.15 711.731 220.736 726.236 185.413L734.872 164.559C736.141 161.329 738.353 158.555 741.221 156.6C744.088 154.646 747.479 153.6 750.949 153.6C754.42 153.6 757.81 154.646 760.678 156.6C763.546 158.555 765.758 161.329 767.027 164.559L775.663 185.379C790.152 220.708 817.64 249.135 852.465 264.804L876.973 275.726C880.106 277.176 882.76 279.492 884.619 282.401C886.479 285.31 887.467 288.69 887.467 292.143C887.467 295.596 886.479 298.976 884.619 301.885C882.76 304.794 880.106 307.11 876.973 308.56L851.031 320.097C817.061 335.332 790.035 362.745 775.287 396.927ZM750.949 494.953C774.117 494.971 797.12 491.059 818.979 483.382C819.138 487.251 819.218 491.108 819.218 494.953C819.218 567.371 790.448 636.823 739.236 688.031C688.025 739.238 618.568 768.006 546.144 768.006V887.467C375.473 819.203 136.533 716.809 136.533 494.953C136.533 422.535 165.304 353.083 216.515 301.875C267.726 250.668 337.183 221.9 409.607 221.9H546.144C550.013 221.9 553.87 221.98 557.716 222.139C546.838 253.026 543.526 286.07 548.057 318.501C552.589 350.932 564.831 381.803 583.759 408.526C602.686 435.248 627.747 457.042 656.837 472.081C685.928 487.119 718.201 494.962 750.949 494.953Z" fill="#87E64C"/>
</svg>
