<svg width="3996" height="1024" viewBox="0 0 3996 1024" fill="none" xmlns="http://www.w3.org/2000/svg">
<path d="M1362.42 783.068C1333.58 783.068 1306.19 778.178 1280.28 768.399C1254.37 758.131 1231.87 746.396 1212.8 733.195V642.25C1233.34 656.918 1256.81 669.631 1283.21 680.388C1310.11 691.145 1338.46 696.523 1368.29 696.523C1389.8 696.523 1407.65 691.634 1421.83 681.855C1436.5 672.076 1443.83 658.63 1443.83 641.516C1443.83 632.226 1440.9 624.159 1435.03 617.313C1429.17 609.979 1421.59 603.623 1412.3 598.244C1403.5 592.866 1394.21 588.465 1384.43 585.042L1307.42 554.239C1282.48 543.971 1262.92 532.236 1248.74 519.034C1235.05 505.343 1225.27 490.186 1219.41 473.562C1214.03 456.937 1211.34 439.335 1211.34 420.755C1211.34 391.418 1219.16 365.748 1234.81 343.745C1250.94 321.742 1272.21 304.629 1298.62 292.405C1325.02 280.181 1353.13 274.07 1382.96 274.07C1411.81 274.07 1437.48 277.981 1459.97 285.804C1482.95 293.628 1502.02 302.673 1517.18 312.941V403.886C1500.55 393.129 1481.73 383.35 1460.7 374.549C1439.68 365.259 1416.7 360.614 1391.76 360.614C1379.05 360.614 1366.34 362.814 1353.62 367.215C1340.91 371.615 1330.4 378.461 1322.08 387.751C1314.26 396.552 1310.35 407.798 1310.35 421.488C1310.35 438.113 1317.44 450.825 1331.62 459.626C1345.8 468.428 1362.91 477.229 1382.96 486.03L1443.1 512.433C1477.82 527.102 1503.49 544.215 1520.11 563.773C1536.73 583.331 1545.05 607.534 1545.05 636.382C1545.05 665.231 1536.73 690.656 1520.11 712.659C1503.49 734.173 1481.24 751.286 1453.37 763.999C1425.99 776.711 1395.67 783.068 1362.42 783.068Z" fill="#191919"/>
<path d="M1752.84 785.268C1725.46 785.268 1699.79 780.623 1675.83 771.333C1652.36 761.554 1631.34 748.108 1612.76 730.994C1594.67 713.392 1580.49 692.856 1570.22 669.387C1560.44 645.917 1555.55 620.491 1555.55 593.11C1555.55 557.417 1563.62 524.657 1579.75 494.831C1595.89 465.005 1617.89 441.046 1645.76 422.955C1673.63 404.864 1705.41 395.818 1741.11 395.818C1777.78 395.818 1809.07 403.642 1834.98 419.288C1860.9 434.934 1880.7 456.448 1894.39 483.83C1908.08 511.211 1914.93 542.748 1914.93 578.442V617.313H1635.49V555.705H1831.32C1829.85 536.636 1824.47 520.99 1815.18 508.766C1806.38 496.542 1795.14 487.497 1781.44 481.629C1768.24 475.762 1754.31 472.828 1739.64 472.828C1719.59 472.828 1702.23 477.962 1687.57 488.23C1672.9 498.498 1661.41 512.678 1653.1 530.769C1645.27 548.86 1641.36 569.641 1641.36 593.11C1641.36 614.624 1646.01 633.938 1655.3 651.051C1665.07 668.164 1678.52 681.61 1695.63 691.389C1713.24 701.168 1733.28 706.058 1755.77 706.058C1783.16 706.058 1807.6 700.435 1829.12 689.189C1851.12 677.943 1868.97 666.208 1882.66 653.985V736.128C1875.32 743.463 1865.06 751.041 1851.85 758.865C1838.65 766.199 1823.49 772.311 1806.38 777.2C1789.76 782.579 1771.91 785.268 1752.84 785.268Z" fill="#191919"/>
<path d="M2196.8 774.267L2196.07 559.373C2196.07 532.48 2189.71 512.678 2177 499.965C2164.77 486.763 2147.42 480.162 2124.92 480.162C2107.81 480.162 2091.67 486.03 2076.52 497.765C2061.36 509.011 2047.91 522.457 2036.18 538.103V458.893C2044 448.625 2053.54 438.846 2064.78 429.556C2076.03 419.777 2088.74 411.709 2102.92 405.353C2117.59 398.997 2133.24 395.818 2149.86 395.818C2175.29 395.818 2198.02 401.441 2218.07 412.687C2238.12 423.933 2254.01 440.802 2265.74 463.294C2277.48 485.785 2283.34 513.9 2283.34 547.638V774.267H2196.8ZM1949.63 774.267V404.619H2036.18V774.267H1949.63Z" fill="#191919"/>
<path d="M2480.87 785.268C2459.36 785.268 2439.8 780.623 2422.2 771.333C2405.08 761.554 2391.39 748.108 2381.12 730.994C2371.34 713.392 2366.46 692.856 2366.46 669.387V477.962H2303.38V436.89C2327.34 427.6 2347.14 411.709 2362.79 389.218C2378.43 366.237 2392.13 337.633 2403.86 303.407H2453V404.619H2566.68V477.962H2453V648.851C2453 665.475 2457.4 678.432 2466.2 687.722C2475.49 697.012 2488.2 701.657 2504.34 701.657C2519.01 701.657 2531.72 699.702 2542.48 695.79C2553.72 691.389 2563.5 686.744 2571.81 681.855V755.931C2563.01 764.732 2550.79 771.822 2535.14 777.2C2519.99 782.579 2501.9 785.268 2480.87 785.268Z" fill="#191919"/>
<path d="M2743.67 783.068C2714.82 783.068 2687.44 778.178 2661.53 768.399C2635.61 758.131 2613.12 746.396 2594.05 733.195V642.25C2614.59 656.918 2638.06 669.631 2664.46 680.388C2691.35 691.145 2719.71 696.523 2749.54 696.523C2771.05 696.523 2788.9 691.634 2803.08 681.855C2817.75 672.076 2825.08 658.63 2825.08 641.516C2825.08 632.226 2822.15 624.159 2816.28 617.313C2810.41 609.979 2802.83 603.623 2793.54 598.244C2784.74 592.866 2775.45 588.465 2765.67 585.042L2688.66 554.239C2663.73 543.971 2644.17 532.236 2629.99 519.034C2616.3 505.343 2606.52 490.186 2600.65 473.562C2595.27 456.937 2592.59 439.335 2592.59 420.755C2592.59 391.418 2600.41 365.748 2616.06 343.745C2632.19 321.742 2653.46 304.629 2679.86 292.405C2706.27 280.181 2734.38 274.07 2764.21 274.07C2793.06 274.07 2818.73 277.981 2841.22 285.804C2864.2 293.628 2883.27 302.673 2898.42 312.941V403.886C2881.8 393.129 2862.98 383.35 2841.95 374.549C2820.93 365.259 2797.95 360.614 2773.01 360.614C2760.3 360.614 2747.58 362.814 2734.87 367.215C2722.16 371.615 2711.65 378.461 2703.33 387.751C2695.51 396.552 2691.6 407.798 2691.6 421.488C2691.6 438.113 2698.69 450.825 2712.87 459.626C2727.05 468.428 2744.16 477.229 2764.21 486.03L2824.35 512.433C2859.06 527.102 2884.73 544.215 2901.36 563.773C2917.98 583.331 2926.29 607.534 2926.29 636.382C2926.29 665.231 2917.98 690.656 2901.36 712.659C2884.73 734.173 2862.49 751.286 2834.62 763.999C2807.24 776.711 2776.92 783.068 2743.67 783.068Z" fill="#191919"/>
<path d="M3104.02 785.268C3074.19 785.268 3046.57 777.689 3021.14 762.532C2995.72 747.374 2975.18 725.371 2959.53 696.523C2944.38 667.675 2936.8 632.96 2936.8 592.377C2936.8 551.305 2944.38 516.1 2959.53 486.763C2975.18 457.426 2996.21 434.934 3022.61 419.288C3049.01 403.642 3078.35 395.818 3110.62 395.818C3130.67 395.818 3150.96 400.708 3171.49 410.487C3192.52 419.777 3210.12 432.245 3224.3 447.892V404.619H3310.84V774.267H3224.3V711.925C3213.05 731.972 3196.92 749.33 3175.89 763.999C3155.36 778.178 3131.4 785.268 3104.02 785.268ZM3124.55 698.724C3142.16 698.724 3158.54 694.079 3173.69 684.789C3188.85 675.498 3201.08 662.541 3210.37 645.917C3219.66 628.804 3224.3 608.757 3224.3 585.776L3223.57 529.302C3210.37 514.145 3195.7 502.165 3179.56 493.364C3163.92 484.563 3146.56 480.162 3127.49 480.162C3106.95 480.162 3089.11 485.541 3073.95 496.298C3058.79 507.055 3047.06 520.99 3038.74 538.103C3030.92 554.727 3027.01 572.819 3027.01 592.377C3027.01 611.935 3030.92 629.782 3038.74 645.917C3047.06 662.052 3058.55 675.009 3073.21 684.789C3087.88 694.079 3105 698.724 3124.55 698.724Z" fill="#191919"/>
<path d="M3374.15 950.289L3517.91 687.722L3642.59 404.619H3741.6L3472.43 950.289H3374.15ZM3494.44 769.866L3324.28 404.619H3425.49L3561.18 705.324L3494.44 769.866Z" fill="#191919"/>
<path d="M3853.32 785.268C3837.67 785.268 3821.78 783.312 3805.64 779.401C3789.51 775.978 3774.84 771.577 3761.64 766.199C3748.44 760.331 3737.92 754.709 3730.1 749.33V670.853C3738.9 676.721 3749.9 682.833 3763.11 689.189C3776.31 695.057 3789.75 699.946 3803.44 703.858C3817.62 707.28 3830.83 708.992 3843.05 708.992C3862.61 708.992 3877.52 705.325 3887.79 697.99C3898.54 690.656 3903.92 680.632 3903.92 667.92C3903.92 658.141 3899.52 650.562 3890.72 645.183C3882.41 639.316 3870.19 633.449 3854.05 627.581L3807.11 611.446C3778.75 601.667 3759.19 588.221 3748.44 571.107C3738.17 553.994 3733.03 533.947 3733.03 510.966C3733.03 487.986 3738.9 467.939 3750.64 450.825C3762.37 433.712 3778.75 420.266 3799.78 410.487C3821.29 400.708 3845.74 395.818 3873.12 395.818C3895.61 395.818 3916.64 399.241 3936.19 406.086C3955.75 412.443 3970.42 419.777 3980.2 428.089V506.566C3968.95 498.743 3954.77 491.408 3937.66 484.563C3921.04 477.229 3903.43 473.562 3884.85 473.562C3866.27 473.562 3851.61 477.718 3840.85 486.03C3830.58 494.342 3825.45 503.877 3825.45 514.633C3825.45 522.946 3828.38 530.769 3834.25 538.103C3840.6 544.948 3851.85 550.816 3867.99 555.705L3914.19 571.841C3941.57 580.153 3961.86 592.377 3975.07 608.512C3988.76 624.648 3995.6 644.45 3995.6 667.92C3995.6 689.923 3989.25 709.97 3976.53 728.061C3963.82 745.663 3946.71 759.598 3925.19 769.866C3904.17 780.134 3880.21 785.268 3853.32 785.268Z" fill="#191919"/>
<path d="M885.545 339.526L873.904 366.482C872.084 370.872 869.015 374.621 865.082 377.259C861.15 379.896 856.53 381.303 851.804 381.303C847.078 381.303 842.458 379.896 838.525 377.259C834.593 374.621 831.524 370.872 829.704 366.482L818.063 339.526C797.595 291.84 760.111 253.606 713.007 232.369L677.09 216.224C672.732 214.206 669.041 210.974 666.453 206.909C663.865 202.845 662.49 198.119 662.49 193.292C662.49 188.465 663.865 183.739 666.453 179.674C669.041 175.61 672.732 172.378 677.09 170.36L711.02 155.168C759.308 133.326 797.433 93.6776 817.542 44.3908L829.515 15.2917C831.273 10.7841 834.341 6.91423 838.316 4.18657C842.292 1.45892 846.992 0 851.804 0C856.616 0 861.316 1.45892 865.292 4.18657C869.267 6.91423 872.334 10.7841 874.093 15.2917L886.065 44.3432C906.153 93.6392 944.262 133.304 992.541 155.168L1026.52 170.408C1030.86 172.431 1034.54 175.663 1037.12 179.722C1039.7 183.781 1041.07 188.498 1041.07 193.316C1041.07 198.133 1039.7 202.85 1037.12 206.909C1034.54 210.969 1030.86 214.201 1026.52 216.224L990.553 232.321C943.459 253.579 905.992 291.83 885.545 339.526ZM851.804 476.307C883.923 476.332 915.813 470.873 946.118 460.162C946.338 465.559 946.449 470.941 946.449 476.307C946.449 577.355 906.563 674.265 835.565 745.717C764.568 817.169 668.275 857.311 567.869 857.311V1024C331.257 928.749 0 785.872 0 476.307C0 375.258 39.886 278.348 110.883 206.896C181.881 135.444 278.174 95.3025 378.58 95.3025H567.869C573.232 95.3025 578.58 95.4136 583.912 95.6359C568.831 138.733 564.239 184.842 570.521 230.094C576.804 275.346 593.777 318.423 620.017 355.71C646.258 392.997 681 423.408 721.33 444.391C761.661 465.375 806.403 476.319 851.804 476.307Z" fill="#87E64C"/>
</svg>
